<?xml version="1.0" encoding="UTF-8"?>
<!DOCTYPE svg PUBLIC "-//W3C//DTD SVG 1.1//EN" "http://www.w3.org/Graphics/SVG/1.1/DTD/svg11.dtd">
<!-- Creator: CorelDRAW 2018 (64-Bit) -->
<svg xmlns="http://www.w3.org/2000/svg" xml:space="preserve" width="210mm" height="297mm" version="1.1" style="shape-rendering:geometricPrecision; text-rendering:geometricPrecision; image-rendering:optimizeQuality; fill-rule:evenodd; clip-rule:evenodd"
viewBox="0 0 21000 29700"
 xmlns:xlink="http://www.w3.org/1999/xlink">
 <defs>
  <style type="text/css">
   <![CDATA[
    .str3 {stroke:#B2B3B3;stroke-width:7.62;stroke-miterlimit:22.9256}
    .str1 {stroke:#2B2A29;stroke-width:7.62;stroke-miterlimit:22.9256}
    .str2 {stroke:#86776F;stroke-width:7.62;stroke-miterlimit:22.9256}
    .str0 {stroke:#393185;stroke-width:7.62;stroke-miterlimit:22.9256}
    .fil1 {fill:#EBECEC}
    .fil0 {fill:#B2B3B3}
    .fil3 {fill:#86776F}
    .fil2 {fill:#E31E24}
   ]]>
  </style>
 </defs>
 <g id="Слой_x0020_1">
  <metadata id="CorelCorpID_0Corel-Layer"/>
  <g id="_1559173821312">
   <path class="fil0 str0" d="M10357.1 17915.1l-2255.4 0 0 -519.98 -1643.8 0 0 -7564.88c0,-500.25 405.5,-905.75 905.75,-905.75l5484.94 0 0 771.58 1660.59 0 0 5149.5c-520,0 -1127.38,190.06 -1537.22,673.26 -646.06,761.74 -224.07,806.04 -1180.49,1861.84 -354,390.82 -1078.87,478.51 -1434.37,534.43z"/>
   <path class="fil1" d="M954.04 12275.88l4411.44 0 0 1996.05 -4411.44 0 0 -1996.05zm7020.87 5246.03l-1643.8 0 0 -7691.67c0,-570.24 462.3,-1032.54 1032.54,-1032.54l5611.73 0 0 771.58 1660.59 0 0 5403.08 -126.79 0c-540.56,0 -1086.33,210.88 -1440.53,628.48 -191.1,225.33 -304.05,402.92 -410,675.75 -64.33,165.64 -124.25,311.32 -215.52,465.55 -153.19,258.86 -356.33,501.37 -557.68,723.66 -361.74,399.34 -1004.37,495.22 -1508.64,574.54l-9.79 1.55 -2392.11 0 0 -519.98zm-1589.33 -14851.91l8135.85 0 0 4669.29 -8135.85 0 0 -4669.29zm-1021.69 -544.37l2.35 14983.68 -1249.66 0 0 2323.16 12613.87 0 0 -2247.67 -1211.9 0 -27.52 -15059.17 -10127.14 0z"/>
   <polygon class="fil0 str1" points="6595.59,2790.53 14311.41,2790.53 14311.41,7218.76 6595.59,7218.76 "/>
   <polygon class="fil2" points="856.23,3016.95 5259.28,3016.95 5259.28,5803.43 856.23,5803.43 "/>
   <polygon class="fil2" points="856.23,6029.83 5259.28,6029.83 5259.28,8973.63 856.23,8973.63 "/>
   <polygon class="fil2" points="872.99,9183.27 5276.05,9183.27 5276.05,12068.34 872.99,12068.34 "/>
   <polygon class="fil2" points="889.78,14483.73 5292.83,14483.73 5292.83,17008.15 889.78,17008.15 "/>
   <polygon class="fil2" points="847.84,17150.72 3984.49,17150.72 3984.49,19440.3 847.84,19440.3 "/>
   <polygon class="fil2" points="847.84,19633.2 5125.09,19633.2 5125.09,23851.74 847.84,23851.74 "/>
   <polygon class="fil2" points="5359.6,19649.96 8580.44,19649.96 8580.44,23868.51 5359.6,23868.51 "/>
   <polygon class="fil2" points="8781.41,19649.94 12170,19649.94 12170,21453.12 8781.41,21453.12 "/>
   <polygon class="fil2" points="12354.18,19633.18 15575.02,19633.18 15575.02,23851.72 12354.18,23851.72 "/>
   <polygon class="fil2" points="15759.2,19649.96 20087.11,19649.96 20087.11,23868.51 15759.2,23868.51 "/>
   <polygon class="fil2" points="16883,17100.38 20124.64,17100.38 20124.64,19499.03 16883,19499.03 "/>
   <polygon class="fil2" points="15641.76,14500.49 20132.63,14500.49 20132.63,16987.08 15641.76,16987.08 "/>
   <polygon class="fil2" points="15641.76,11833.5 20132.63,11833.5 20132.63,14320.09 15641.76,14320.09 "/>
   <polygon class="fil2" points="15641.79,9195.75 20132.65,9195.75 20132.65,11581.87 15641.79,11581.87 "/>
   <polygon class="fil2" points="15641.79,6000.39 20132.65,6000.39 20132.65,8969.32 15641.79,8969.32 "/>
   <polygon class="fil2" points="15641.79,2960.86 20132.65,2960.86 20132.65,5845.25 15641.79,5845.25 "/>
   <path class="fil3 str2" d="M4625.53 2523.45l-7.31 -847.07 11679.51 0 0 796.73 4294.04 0 0 21901.9 -20182.58 0 0 -21851.56 4216.34 0zm255.79 253.58l-7.31 -847.07 11170.14 0 0 796.74 4294.03 0 0 21394.73 -19675.41 0 0 -21344.4 4218.55 0z"/>
   <rect class="fil0" x="8789.5" y="21733.62" width="3405.02" height="2147.02"/>
   <path class="fil0 str3" d="M5267.12 24492.98l-603.83 939.33c3749.94,904.07 7630.94,913.05 11649.25,-16.79l-587.07 -939.3c-3600.94,1015.7 -7081.1,969.17 -10458.35,16.76z"/>
  </g>
 </g>
</svg>
